<?xml version="1.0" encoding="UTF-8" standalone="no"?>
<svg width="165px" height="22px" viewBox="0 0 165 22" version="1.1" xmlns="http://www.w3.org/2000/svg" xmlns:xlink="http://www.w3.org/1999/xlink">
    <!-- Generator: Sketch 3.7.2 (28276) - http://www.bohemiancoding.com/sketch -->
    <title>Logo-black-small</title>
    <desc>Created with Sketch.</desc>
    <defs></defs>
    <g id="Page-1" stroke="none" stroke-width="1" fill="none" fill-rule="evenodd">
        <g id="Logo-A4" transform="translate(-215.000000, -380.000000)" fill="#FFFFFF">
            <g id="Logo-black-small" transform="translate(215.000000, 380.000000)">
                <ellipse id="Oval-2-Copy" cx="162.75" cy="20" rx="1.5" ry="1.5"></ellipse>
                <path d="M2.55,0.2 L10.17,18.89 L17.73,0.2 L19.95,0.2 L11.07,21.5 L9.24,21.5 L0.36,0.2 L2.55,0.2 Z M25.05,21.5 L32.67,2.81 L40.23,21.5 L42.45,21.5 L33.57,0.2 L31.74,0.2 L22.86,21.5 L25.05,21.5 Z M51.3,4.1 L51.3,21.5 L49.23,21.5 L49.23,0.2 L50.85,0.2 L64.95,17.93 L64.95,0.23 L67.02,0.23 L67.02,21.5 L65.22,21.5 L51.3,4.1 Z" id="VAN"></path>
                <path d="M80.7,21.5 L80.7,0.2 L87.9,0.2 C89.6000085,0.2 91.0899936,0.4799972 92.37,1.04 C93.6500064,1.6000028 94.7149958,2.3599952 95.565,3.32 C96.4150043,4.2800048 97.0499979,5.40499355 97.47,6.695 C97.8900021,7.98500645 98.1,9.3599927 98.1,10.82 C98.1,12.4400081 97.8600024,13.9049934 97.38,15.215 C96.8999976,16.5250065 96.2200044,17.6449953 95.34,18.575 C94.4599956,19.5050046 93.3900063,20.2249974 92.13,20.735 C90.8699937,21.2450025 89.4600078,21.5 87.9,21.5 L80.7,21.5 Z M96,10.82 C96,9.5399936 95.8200018,8.36500535 95.46,7.295 C95.0999982,6.22499465 94.5750035,5.3000039 93.885,4.52 C93.1949966,3.7399961 92.350005,3.13500215 91.35,2.705 C90.349995,2.27499785 89.2000065,2.06 87.9,2.06 L82.77,2.06 L82.77,19.64 L87.9,19.64 C89.2200066,19.64 90.384995,19.4150022 91.395,18.965 C92.4050051,18.5149977 93.2499966,17.8950039 93.93,17.105 C94.6100034,16.314996 95.1249983,15.3850053 95.475,14.315 C95.8250018,13.2449946 96,12.0800063 96,10.82 L96,10.82 Z M113.88,21.65 C112.399993,21.65 111.045006,21.345003 109.815,20.735 C108.584994,20.1249969 107.530004,19.315005 106.65,18.305 C105.769996,17.2949949 105.090002,16.1400065 104.61,14.84 C104.129998,13.5399935 103.89,12.2100068 103.89,10.85 C103.89,9.4299929 104.144997,8.0700065 104.655,6.77 C105.165003,5.4699935 105.869996,4.320005 106.77,3.32 C107.670005,2.319995 108.729994,1.52500295 109.95,0.935 C111.170006,0.34499705 112.489993,0.05 113.91,0.05 C115.390007,0.05 116.744994,0.36499685 117.975,0.995 C119.205006,1.62500315 120.254996,2.4499949 121.125,3.47 C121.995004,4.4900051 122.669998,5.64499355 123.15,6.935 C123.630002,8.22500645 123.87,9.5399933 123.87,10.88 C123.87,12.3000071 123.615003,13.6599935 123.105,14.96 C122.594997,16.2600065 121.895004,17.404995 121.005,18.395 C120.114996,19.3850049 119.060006,20.174997 117.84,20.765 C116.619994,21.3550029 115.300007,21.65 113.88,21.65 L113.88,21.65 Z M105.99,10.85 C105.99,12.0100058 106.179998,13.1249946 106.56,14.195 C106.940002,15.2650053 107.479997,16.2149958 108.18,17.045 C108.880004,17.8750041 109.709995,18.5349975 110.67,19.025 C111.630005,19.5150024 112.699994,19.76 113.88,19.76 C115.080006,19.76 116.169995,19.5000026 117.15,18.98 C118.130005,18.4599974 118.959997,17.7800042 119.64,16.94 C120.320003,16.0999958 120.844998,15.1500053 121.215,14.09 C121.585002,13.0299947 121.77,11.9500055 121.77,10.85 C121.77,9.6899942 121.575002,8.57500535 121.185,7.505 C120.794998,6.43499465 120.250004,5.4900041 119.55,4.67 C118.849997,3.8499959 118.020005,3.19500245 117.06,2.705 C116.099995,2.21499755 115.040006,1.97 113.88,1.97 C112.679994,1.97 111.590005,2.22499745 110.61,2.735 C109.629995,3.24500255 108.800003,3.9199958 108.12,4.76 C107.439997,5.6000042 106.915002,6.5499947 106.545,7.61 C106.174998,8.6700053 105.99,9.7499945 105.99,10.85 L105.99,10.85 Z M138.09,0.35 L140.1,0.35 L143.1,7.91 L146.13,0.35 L148.11,0.35 L144.39,9.44 L148.47,19.07 L156.18,0.2 L158.46,0.2 L149.46,21.5 L147.6,21.5 L143.13,10.97 L138.63,21.5 L136.77,21.5 L127.8,0.2 L130.02,0.2 L137.76,19.07 L141.81,9.44 L138.09,0.35 Z" id="DOW"></path>
            </g>
        </g>
    </g>
</svg>