<svg width="34" height="10" viewBox="0 0 34 10" fill="none" xmlns="http://www.w3.org/2000/svg">
<path d="M7.89846 7.17224L9.1581 0.514139H11.0797L9.00386 9.87147H7.06298L5.53985 3.61183L4.01671 9.87147H2.07584L0 0.514139H1.92159L3.18766 7.15938L4.73008 0.514139H6.36247L7.89846 7.17224Z" fill="white"/>
<path d="M11.5103 6.33033C11.5103 5.64053 11.6431 5.02571 11.9087 4.48586C12.1744 3.94602 12.5557 3.52828 13.0527 3.23265C13.554 2.93702 14.1345 2.7892 14.7943 2.7892C15.7326 2.7892 16.4974 3.07626 17.0887 3.65039C17.6842 4.22451 18.0163 5.00428 18.0848 5.98972L18.0977 6.4653C18.0977 7.53213 17.7999 8.38903 17.2044 9.03599C16.6088 9.67866 15.8098 10 14.8072 10C13.8046 10 13.0034 9.67866 12.4036 9.03599C11.8081 8.39332 11.5103 7.51928 11.5103 6.41388V6.33033ZM13.3676 6.4653C13.3676 7.12511 13.4919 7.63068 13.7404 7.982C13.9889 8.32905 14.3445 8.50257 14.8072 8.50257C15.2571 8.50257 15.6084 8.33119 15.8612 7.98843C16.114 7.64139 16.2404 7.08869 16.2404 6.33033C16.2404 5.68338 16.114 5.18209 15.8612 4.82648C15.6084 4.47087 15.2528 4.29306 14.7943 4.29306C14.3402 4.29306 13.9889 4.47087 13.7404 4.82648C13.4919 5.17781 13.3676 5.72408 13.3676 6.4653Z" fill="white"/>
<path d="M23.1491 4.65938C22.8963 4.62511 22.6735 4.60797 22.4807 4.60797C21.7781 4.60797 21.3175 4.84576 21.099 5.32134V9.87147H19.2416V2.91774H20.9961L21.0476 3.74679C21.4203 3.1084 21.9366 2.7892 22.5964 2.7892C22.8021 2.7892 22.9949 2.81705 23.1748 2.87275L23.1491 4.65938Z" fill="white"/>
<path d="M26.5745 7.08226L25.9062 7.75064V9.87147H24.0488V0H25.9062V5.46915L26.2661 5.00643L28.0463 2.91774H30.2763L27.7635 5.8162L30.4949 9.87147H28.3612L26.5745 7.08226Z" fill="white"/>
<path d="M31.1761 8.95887C31.1761 8.66324 31.2746 8.42331 31.4717 8.23907C31.6731 8.05484 31.9237 7.96272 32.2236 7.96272C32.5278 7.96272 32.7785 8.05484 32.9756 8.23907C33.1769 8.42331 33.2776 8.66324 33.2776 8.95887C33.2776 9.25021 33.1791 9.488 32.982 9.67224C32.7849 9.85218 32.5321 9.94216 32.2236 9.94216C31.9195 9.94216 31.6688 9.85218 31.4717 9.67224C31.2746 9.488 31.1761 9.25021 31.1761 8.95887Z" fill="white"/>
</svg>
