<svg width="30" height="10" viewBox="0 0 30 10" fill="none" xmlns="http://www.w3.org/2000/svg">
<path d="M7.89846 7.17224L9.1581 0.514139H11.0797L9.00386 9.87146H7.06298L5.53985 3.61182L4.01671 9.87146H2.07584L0 0.514139H1.92159L3.18766 7.15938L4.73008 0.514139H6.36247L7.89846 7.17224Z" fill="white"/>
<path d="M13.8175 3.67609C14.3102 3.08483 14.9293 2.7892 15.6748 2.7892C17.1829 2.7892 17.9477 3.66538 17.9692 5.41774V9.87146H16.1118V5.46915C16.1118 5.07069 16.0261 4.77721 15.8548 4.58869C15.6834 4.39589 15.3985 4.29949 15 4.29949C14.4559 4.29949 14.0617 4.50943 13.8175 4.92931V9.87146H11.9602V0H13.8175V3.67609Z" fill="white"/>
<path d="M19.081 6.33033C19.081 5.64053 19.2138 5.02571 19.4794 4.48586C19.7451 3.94602 20.1264 3.52828 20.6234 3.23265C21.1247 2.93702 21.7052 2.7892 22.365 2.7892C23.3033 2.7892 24.0681 3.07626 24.6594 3.65039C25.2549 4.22451 25.587 5.00428 25.6555 5.98972L25.6684 6.4653C25.6684 7.53213 25.3706 8.38903 24.7751 9.03599C24.1795 9.67866 23.3805 10 22.3779 10C21.3753 10 20.5741 9.67866 19.9743 9.03599C19.3787 8.39332 19.081 7.51928 19.081 6.41388V6.33033ZM20.9383 6.4653C20.9383 7.12511 21.0626 7.63068 21.3111 7.98201C21.5596 8.32905 21.9152 8.50257 22.3779 8.50257C22.8278 8.50257 23.1791 8.33119 23.4319 7.98843C23.6847 7.64139 23.8111 7.08869 23.8111 6.33033C23.8111 5.68338 23.6847 5.18209 23.4319 4.82648C23.1791 4.47087 22.8235 4.29306 22.365 4.29306C21.9109 4.29306 21.5596 4.47087 21.3111 4.82648C21.0626 5.17781 20.9383 5.72408 20.9383 6.4653Z" fill="white"/>
<path d="M26.9087 8.95887C26.9087 8.66324 27.0073 8.42331 27.2044 8.23907C27.4057 8.05484 27.6564 7.96272 27.9563 7.96272C28.2605 7.96272 28.5111 8.05484 28.7082 8.23907C28.9096 8.42331 29.0103 8.66324 29.0103 8.95887C29.0103 9.25021 28.9117 9.488 28.7147 9.67224C28.5176 9.85219 28.2648 9.94216 27.9563 9.94216C27.6521 9.94216 27.4015 9.85219 27.2044 9.67224C27.0073 9.488 26.9087 9.25021 26.9087 8.95887Z" fill="white"/>
</svg>
