<svg width="34" height="10" fill="none" xmlns="http://www.w3.org/2000/svg"><path d="M7.898 7.172L9.158.514h1.922L9.004 9.871H7.063L5.54 3.611l-1.523 6.26H2.076L0 .514h1.922L3.188 7.16 4.73.514h1.632l1.536 6.658zM13.818 3.676c.492-.591 1.111-.887 1.857-.887 1.508 0 2.273.876 2.294 2.629V9.87h-1.857V5.47c0-.398-.086-.692-.257-.88-.172-.193-.457-.29-.855-.29-.544 0-.938.21-1.182.63v4.942H11.96V0h1.857v3.676zM23.4 9.871a2.063 2.063 0 01-.187-.623c-.45.501-1.034.752-1.754.752-.681 0-1.247-.197-1.697-.591a1.905 1.905 0 01-.668-1.491c0-.737.272-1.303.816-1.697.548-.394 1.339-.593 2.372-.598h.854v-.398c0-.321-.083-.578-.25-.771-.163-.193-.422-.29-.778-.29-.313 0-.56.075-.74.225-.175.15-.263.356-.263.617h-1.857c0-.402.124-.775.373-1.118.248-.343.6-.61 1.054-.803a3.805 3.805 0 011.53-.296c.856 0 1.535.217 2.037.65.505.428.758 1.032.758 1.812v3.014c.004.66.096 1.159.276 1.497v.11H23.4zM21.864 8.58c.274 0 .527-.06.758-.18.232-.125.403-.29.514-.495V6.71h-.694c-.93 0-1.424.32-1.484.964l-.007.109c0 .231.082.422.244.572.163.15.386.225.669.225zM28.65 1.208v1.71h1.19V4.28h-1.19v3.47c0 .258.05.442.148.553.099.112.287.167.566.167.205 0 .387-.015.546-.045v1.408a3.823 3.823 0 01-1.125.167c-1.302 0-1.966-.658-1.992-1.973V4.28h-1.015V2.918h1.015v-1.71h1.857zM30.97 8.959a.94.94 0 01.296-.72c.201-.184.452-.276.752-.276.304 0 .555.092.752.276a.93.93 0 01.302.72c0 .291-.099.529-.296.713-.197.18-.45.27-.758.27-.304 0-.555-.09-.752-.27a.932.932 0 01-.296-.713z" fill="#fff"/></svg>