<svg width="50" height="50" viewBox="0 0 58 58" fill="none" xmlns="http://www.w3.org/2000/svg">
<path d="M20.125 36.6406C20.125 35.3125 19.6562 34.2969 18.7188 33.5938C17.7812 32.875 16.0938 32.125 13.6562 31.3438C11.2188 30.5469 9.28906 29.7656 7.86719 29C3.99219 26.9062 2.05469 24.0859 2.05469 20.5391C2.05469 18.6953 2.57031 17.0547 3.60156 15.6172C4.64844 14.1641 6.14062 13.0312 8.07812 12.2188C10.0312 11.4062 12.2188 11 14.6406 11C17.0781 11 19.25 11.4453 21.1562 12.3359C23.0625 13.2109 24.5391 14.4531 25.5859 16.0625C26.6484 17.6719 27.1797 19.5 27.1797 21.5469H20.1484C20.1484 19.9844 19.6562 18.7734 18.6719 17.9141C17.6875 17.0391 16.3047 16.6016 14.5234 16.6016C12.8047 16.6016 11.4688 16.9688 10.5156 17.7031C9.5625 18.4219 9.08594 19.375 9.08594 20.5625C9.08594 21.6719 9.64062 22.6016 10.75 23.3516C11.875 24.1016 13.5234 24.8047 15.6953 25.4609C19.6953 26.6641 22.6094 28.1562 24.4375 29.9375C26.2656 31.7188 27.1797 33.9375 27.1797 36.5938C27.1797 39.5469 26.0625 41.8672 23.8281 43.5547C21.5938 45.2266 18.5859 46.0625 14.8047 46.0625C12.1797 46.0625 9.78906 45.5859 7.63281 44.6328C5.47656 43.6641 3.82812 42.3438 2.6875 40.6719C1.5625 39 1 37.0625 1 34.8594H8.05469C8.05469 38.625 10.3047 40.5078 14.8047 40.5078C16.4766 40.5078 17.7812 40.1719 18.7188 39.5C19.6562 38.8125 20.125 37.8594 20.125 36.6406Z" fill="#212529"/>
<path d="M23.5209 45.5938V11.4688H34.0209C37.0209 11.4688 39.7006 12.1484 42.06 13.5078C44.435 14.8516 46.2866 16.7734 47.6147 19.2734C48.9428 21.7578 49.6069 24.5859 49.6069 27.7578V29.3281C49.6069 32.5 48.9506 35.3203 47.6381 37.7891C46.3413 40.2578 44.5053 42.1719 42.1303 43.5312C39.7553 44.8906 37.0756 45.5781 34.0913 45.5938H23.5209ZM30.5522 17.1641V39.9453H33.9506C36.7006 39.9453 38.8022 39.0469 40.2553 37.25C41.7084 35.4531 42.4506 32.8828 42.4819 29.5391V27.7344C42.4819 24.2656 41.7631 21.6406 40.3256 19.8594C38.8881 18.0625 36.7866 17.1641 34.0209 17.1641H30.5522Z" fill="#212529"/>
<path d="M49.8459 42.2656C49.8459 41.1875 50.2053 40.3125 50.9241 39.6406C51.6584 38.9688 52.5725 38.6328 53.6663 38.6328C54.7756 38.6328 55.6897 38.9688 56.4084 39.6406C57.1428 40.3125 57.51 41.1875 57.51 42.2656C57.51 43.3281 57.1506 44.1953 56.4319 44.8672C55.7131 45.5234 54.7913 45.8516 53.6663 45.8516C52.5569 45.8516 51.6428 45.5234 50.9241 44.8672C50.2053 44.1953 49.8459 43.3281 49.8459 42.2656Z" fill="#212529"/>
</svg>
